<svg width="24" height="22" viewBox="0 0 24 22" fill="none" xmlns="http://www.w3.org/2000/svg">
<g id="gears-svgrepo-com 1" clip-path="url(#clip0_401_8)">
<g id="Group">
<g id="bigg">
<g id="Group 15">
<path id="big-gear" d="M14.066 11.209L13.1247 10.3534C13.2274 10.1612 13.3173 9.96393 13.3942 9.76198H14.7253C15.1627 9.76198 15.5175 9.43956 15.5175 9.04184V6.93076C15.5175 6.53311 15.1628 6.21061 14.7253 6.21061H13.3941C13.3173 6.00874 13.2273 5.81142 13.1247 5.61932L14.066 4.76356C14.3754 4.48235 14.3754 4.02637 14.066 3.74516L12.424 2.25241C12.1146 1.97128 11.6132 1.97128 11.3038 2.25241L10.3624 3.10817C10.1511 3.01488 9.93414 2.93304 9.712 2.86325V1.65304C9.712 1.25539 9.35733 0.932892 8.91984 0.932892H6.59766C6.16024 0.932892 5.8055 1.25532 5.8055 1.65304V2.86325C5.58343 2.93311 5.36638 3.0148 5.15507 3.10817L4.21382 2.25241C4.06529 2.11739 3.86376 2.04151 3.65366 2.04151C3.44356 2.04151 3.2421 2.11739 3.0935 2.25241L1.45139 3.74516C1.30287 3.88018 1.21939 4.0634 1.21939 4.2544C1.21939 4.4454 1.30287 4.62854 1.45139 4.76364L2.39273 5.61939C2.2901 5.81142 2.20008 6.00874 2.12331 6.21069H0.792162C0.354667 6.21069 0 6.53311 0 6.93076V9.04191C0 9.43956 0.354667 9.76206 0.792162 9.76206H2.12331C2.20024 9.96393 2.2901 10.1612 2.39281 10.3534L1.45147 11.2091C1.14214 11.4903 1.14214 11.9463 1.45147 12.2275L3.0935 13.7203C3.40291 14.0013 3.90432 14.0015 4.21374 13.7203L5.15507 12.8645C5.3663 12.9579 5.58343 13.0397 5.8055 13.1095V14.3197C5.8055 14.7174 6.16016 15.0399 6.59766 15.0399H8.91992C9.35733 15.0399 9.71208 14.7174 9.71208 14.3197V13.1095C9.93406 13.0396 10.1512 12.9579 10.3625 12.8645L11.3038 13.7203C11.6133 14.0014 12.1147 14.0014 12.4241 13.7203L14.0661 12.2275C14.3754 11.9462 14.3754 11.4902 14.066 11.209ZM12.0265 8.88081C11.9174 9.31269 11.7309 9.72195 11.4722 10.0972C11.276 10.3816 11.3222 10.7515 11.5833 10.9888L12.3857 11.7183L11.8639 12.1927L11.0614 11.4631C10.8002 11.2258 10.3935 11.1841 10.0806 11.3621C9.66772 11.5974 9.21762 11.767 8.74279 11.866C8.38287 11.9411 8.12784 12.2323 8.12784 12.5679V13.5996H7.3899V12.5679C7.3899 12.2323 7.13487 11.9412 6.77495 11.866C6.30012 11.767 5.85002 11.5974 5.43709 11.3621C5.12453 11.1841 4.71749 11.2257 4.45632 11.4631L3.65382 12.1927L3.13204 11.7183L3.93446 10.9888C4.19556 10.7514 4.24162 10.3816 4.04558 10.0972C3.78683 9.72195 3.60032 9.31269 3.49123 8.88081C3.40865 8.55368 3.0884 8.32184 2.71919 8.32184H1.58424V7.65098H2.71895C3.08808 7.65098 3.40832 7.41914 3.49099 7.09208C3.60016 6.66013 3.78659 6.25095 4.04533 5.87578C4.24154 5.5914 4.19539 5.22145 3.9343 4.98409L3.1318 4.25454L3.65366 3.7802L4.45608 4.50975C4.71717 4.74718 5.1242 4.78883 5.43693 4.61069C5.8497 4.37546 6.2998 4.20599 6.77471 4.10689C7.13463 4.03181 7.38966 3.74061 7.38966 3.40496V2.37319H8.1276V3.40481C8.1276 3.74046 8.38263 4.03159 8.74255 4.10674C9.21754 4.20584 9.66756 4.37532 10.0803 4.61054C10.3931 4.78883 10.8002 4.74711 11.0612 4.5096L11.8637 3.78005L12.3855 4.2544L11.5829 4.98395C11.3219 5.22138 11.2758 5.59126 11.4719 5.87563C11.7307 6.2508 11.9171 6.66005 12.0263 7.09194C12.1088 7.41899 12.4292 7.65084 12.7983 7.65084H13.933V8.32169H12.7983C12.4293 8.32176 12.1091 8.55361 12.0265 8.88081Z" fill="#E84949"/>
</g>
<path id="Vector" d="M7.75871 5.2191C6.08025 5.2191 4.71475 6.46046 4.71475 7.98634C4.71475 9.51221 6.08025 10.7536 7.75871 10.7536C9.43718 10.7536 10.8027 9.51221 10.8027 7.98634C10.8027 6.46046 9.43726 5.2191 7.75871 5.2191ZM7.75871 9.31335C6.95378 9.31335 6.29899 8.71809 6.29899 7.98634C6.29899 7.25458 6.95386 6.65932 7.75871 6.65932C8.56356 6.65932 9.21843 7.25458 9.21843 7.98634C9.21843 8.71809 8.56364 9.31335 7.75871 9.31335Z" fill="#E84949"/>
</g>
<g id="small">
<g id="Group 14">
<path id="small-gear" d="M23.4811 16.2415C23.8253 16.1837 24.0528 15.8833 23.9893 15.5705L23.6904 14.0973C23.6599 13.947 23.565 13.814 23.4267 13.7274C23.2882 13.6408 23.1175 13.6076 22.9523 13.6353L22.0731 13.7827C22.005 13.6763 21.9312 13.573 21.8523 13.4729L22.3592 12.8036C22.4545 12.6777 22.4909 12.5226 22.4604 12.3724C22.43 12.2221 22.335 12.089 22.1966 12.0024L20.8393 11.1529C20.5513 10.9726 20.1566 11.0385 19.9581 11.3006L19.4511 11.97C19.3201 11.9386 19.1877 11.9129 19.054 11.893L18.8919 11.0938C18.8284 10.781 18.4975 10.5739 18.1538 10.6318L16.5333 10.9036C16.368 10.9313 16.2216 11.0176 16.1264 11.1434C16.0311 11.2693 15.9947 11.4243 16.0251 11.5746L16.1873 12.3738C16.0702 12.4358 15.9565 12.5028 15.8465 12.5746L15.1102 12.1138C14.9717 12.0272 14.8011 11.9942 14.6359 12.0217C14.4705 12.0494 14.3242 12.1358 14.2289 12.2616L13.2945 13.4955C13.1991 13.6213 13.1627 13.7764 13.1932 13.9266C13.2237 14.0769 13.3186 14.21 13.457 14.2966L14.1933 14.7574C14.1587 14.8765 14.1305 14.9969 14.1086 15.1185L13.2294 15.2659C13.0641 15.2936 12.9177 15.3799 12.8225 15.5057C12.7271 15.6316 12.6907 15.7867 12.7212 15.9369L13.0202 17.41C13.0837 17.7229 13.4141 17.9301 13.7583 17.872L14.6375 17.7246C14.7056 17.831 14.7794 17.9344 14.8583 18.0344L14.3514 18.7037C14.2562 18.8296 14.2197 18.9846 14.2502 19.1349C14.2806 19.2852 14.3756 19.4183 14.514 19.5049L15.8713 20.3544C16.1593 20.5347 16.5541 20.4687 16.7525 20.2066L17.2594 19.5373C17.3904 19.5687 17.5228 19.5943 17.6566 19.6143L17.8187 20.4135C17.8751 20.6911 18.1415 20.8852 18.4412 20.8852C18.4793 20.8852 18.518 20.8821 18.5568 20.8756L20.1773 20.6039C20.3426 20.5762 20.489 20.4898 20.5842 20.3641C20.6795 20.2382 20.7159 20.0831 20.6855 19.9329L20.5233 19.1336C20.6404 19.0716 20.7541 19.0046 20.8641 18.9328L21.6003 19.3936C21.7388 19.4803 21.9092 19.5135 22.0747 19.4857C22.24 19.458 22.3863 19.3717 22.4816 19.2458L23.4161 18.012C23.6145 17.7499 23.5418 17.3913 23.2536 17.2109L22.5173 16.75C22.5519 16.6309 22.5801 16.5105 22.602 16.389L23.4811 16.2415ZM21.9066 15.334C21.616 15.3827 21.401 15.6075 21.3884 15.8758C21.3739 16.1825 21.3034 16.4826 21.179 16.7681C21.0701 17.0177 21.1654 17.3026 21.4087 17.4549L22.0129 17.8332L21.7972 18.118L21.193 17.7399C20.9496 17.5875 20.6229 17.6083 20.4053 17.7898C20.1564 17.9974 19.873 18.1643 19.563 18.2861C19.2918 18.3926 19.1375 18.6554 19.1911 18.9194L19.3242 19.5755L18.9501 19.6382L18.817 18.9823C18.7635 18.7182 18.5163 18.5227 18.2212 18.5112C17.8835 18.4979 17.5533 18.4339 17.2393 18.3208C17.1632 18.2934 17.0843 18.2803 17.0061 18.2803C16.8024 18.2803 16.605 18.3699 16.4839 18.5297L16.0679 19.0789L15.7546 18.8828L16.1706 18.3336C16.3381 18.1124 16.3153 17.8154 16.1156 17.6175C15.8873 17.3911 15.7037 17.1335 15.5696 16.8516C15.4524 16.6051 15.1627 16.4648 14.873 16.5136L14.1514 16.6346L14.0823 16.2946L14.804 16.1736C15.0945 16.1249 15.3095 15.9001 15.3221 15.6318C15.3366 15.3251 15.4071 15.0249 15.5315 14.7393C15.6404 14.4897 15.545 14.2049 15.3017 14.0525L14.6975 13.6744L14.9133 13.3895L15.5175 13.7677C15.761 13.9201 16.0875 13.8993 16.3052 13.7178C16.5542 13.5102 16.8376 13.3432 17.1477 13.2214C17.4187 13.1148 17.573 12.8521 17.5194 12.5881L17.3863 11.9321L17.7604 11.8694L17.8935 12.5253C17.9471 12.7895 18.1943 12.9849 18.4894 12.9964C18.8268 13.0096 19.157 13.0736 19.471 13.1868C19.7458 13.2858 20.0591 13.199 20.2265 12.9779L20.6426 12.4286L20.9559 12.6247L20.5399 13.174C20.3724 13.3953 20.3952 13.6923 20.5949 13.8902C20.8232 14.1164 21.0069 14.374 21.1408 14.6559C21.2579 14.9023 21.5473 15.0427 21.8375 14.9939L22.5591 14.8729L22.6281 15.213L21.9066 15.334Z" fill="#E84949"/>
</g>
<path id="Vector_2" d="M19.6207 14.0827C19.1298 13.7755 18.5364 13.6605 17.9503 13.7587C17.3642 13.857 16.8552 14.157 16.5171 14.6033C15.8193 15.5246 16.0762 16.7904 17.0897 17.4247C17.4753 17.6661 17.9158 17.7818 18.3519 17.7818C19.0621 17.7818 19.761 17.475 20.1933 16.9042C20.8911 15.9828 20.6342 14.7171 19.6207 14.0827ZM19.1495 16.2508C18.848 16.6488 18.2463 16.7498 17.8085 16.4758C17.3706 16.2017 17.2596 15.6547 17.5611 15.2567C17.5612 15.2567 17.5612 15.2567 17.5612 15.2567C17.7071 15.0638 17.9271 14.9342 18.1803 14.8918C18.2393 14.8819 18.2986 14.877 18.3573 14.877C18.5507 14.877 18.7394 14.93 18.902 15.0318C19.3399 15.3059 19.451 15.8527 19.1495 16.2508Z" fill="#E84949"/>
</g>
</g>
</g>
<defs>
<clipPath id="clip0_401_8">
<rect width="24" height="21.8182" fill="white"/>
</clipPath>
</defs>
</svg>
