<svg xmlns="http://www.w3.org/2000/svg" width="150" height="150" fill="none"><path fill="#3178C6" d="M0 0h150v150H0z"/><g clip-path="url(#a)"><path fill="#3178C6" d="M130.523 6H19.477C12.034 6 6 12.034 6 19.477v111.046C6 137.966 12.034 144 19.477 144h111.046c7.443 0 13.477-6.034 13.477-13.477V19.477C144 12.034 137.966 6 130.523 6Z"/><path fill="#fff" fill-rule="evenodd" d="M91.425 115.814v13.492c2.193 1.125 4.788 1.968 7.783 2.53 2.995.563 6.151.844 9.47.844 3.234 0 6.306-.309 9.217-.928 2.91-.618 5.462-1.637 7.656-3.057a15.572 15.572 0 0 0 5.209-5.566c1.28-2.291 1.92-5.123 1.92-8.496 0-2.446-.366-4.589-1.097-6.43a15.021 15.021 0 0 0-3.164-4.912c-1.378-1.434-3.03-2.72-4.956-3.859-1.927-1.138-4.099-2.213-6.517-3.225a81.93 81.93 0 0 1-4.767-2.13c-1.406-.689-2.601-1.391-3.586-2.108-.984-.717-1.743-1.476-2.278-2.277-.534-.801-.801-1.708-.801-2.72 0-.927.239-1.763.717-2.508.478-.745 1.153-1.385 2.025-1.919.872-.534 1.94-.949 3.206-1.244 1.265-.295 2.671-.442 4.218-.442 1.125 0 2.313.084 3.564.252a28.6 28.6 0 0 1 3.776.78 26.35 26.35 0 0 1 3.691 1.329 20.325 20.325 0 0 1 3.311 1.855V72.467c-2.053-.787-4.295-1.37-6.728-1.75-2.432-.379-5.224-.569-8.373-.569-3.206 0-6.243.345-9.112 1.034-2.868.688-5.392 1.763-7.572 3.225a16.118 16.118 0 0 0-5.167 5.587c-1.265 2.263-1.898 4.968-1.898 8.117 0 4.02 1.16 7.45 3.48 10.288 2.32 2.839 5.842 5.243 10.567 7.211a142.92 142.92 0 0 1 5.188 2.234c1.603.731 2.988 1.49 4.155 2.277 1.167.787 2.088 1.645 2.763 2.572.675.928 1.013 1.982 1.013 3.163 0 .871-.211 1.679-.633 2.424-.422.745-1.062 1.392-1.92 1.94-.857.548-1.926.977-3.205 1.286-1.28.309-2.777.464-4.493.464-2.925 0-5.821-.513-8.69-1.539-2.868-1.026-5.526-2.565-7.972-4.617ZM68.742 82.569H86.05V71.496H37.805V82.57h17.224v49.302h13.712V82.569Z" clip-rule="evenodd"/></g><defs><clipPath id="a"><path fill="#fff" d="M6 6h138v138H6z"/></clipPath></defs></svg>