<svg xmlns="http://www.w3.org/2000/svg" width="150" height="150" fill="none"><path fill="#0091E2" d="M0 0h150v150H0z"/><g clip-path="url(#a)"><path fill="#0091E2" d="M75 150c41.421 0 75-33.579 75-75S116.421 0 75 0 0 33.579 0 75s33.579 75 75 75Z"/><path fill="#fff" d="M121.187 67.603c-.235-.19-2.359-1.788-6.841-1.788a19.21 19.21 0 0 0-3.545.308c-.864-5.962-5.786-8.862-6.006-8.994l-1.201-.703-.791 1.142a15.994 15.994 0 0 0-2.139 5.01c-.806 3.399-.322 6.592 1.406 9.316-2.08 1.158-5.434 1.45-6.108 1.465H40.576a2.62 2.62 0 0 0-2.622 2.622 40.23 40.23 0 0 0 2.417 14.224c1.904 5.01 4.746 8.687 8.438 10.942 4.13 2.535 10.854 3.985 18.486 3.985a54.928 54.928 0 0 0 10.269-.938 42.859 42.859 0 0 0 13.388-4.863 36.887 36.887 0 0 0 9.141-7.485c4.38-4.966 7.002-10.503 8.95-15.41h.776c4.805 0 7.764-1.92 9.39-3.53a10.08 10.08 0 0 0 2.476-3.663l.336-1.01-.834-.63Zm-75.484 4.16h7.427a.65.65 0 0 0 .644-.645v-6.606a.673.673 0 0 0-.644-.66h-7.427a.65.65 0 0 0-.644.645v6.621a.64.64 0 0 0 .644.645Zm10.24 0h7.426a.65.65 0 0 0 .645-.645v-6.606a.673.673 0 0 0-.645-.66h-7.427a.656.656 0 0 0-.659.66v6.606c0 .366.293.645.66.645Zm10.37.014h7.427a.65.65 0 0 0 .645-.644v-6.607a.673.673 0 0 0-.645-.659h-7.426a.65.65 0 0 0-.645.645v6.62c0 .352.293.63.645.645Zm10.269 0h7.427a.673.673 0 0 0 .659-.644v-6.607a.656.656 0 0 0-.66-.659h-7.426a.65.65 0 0 0-.644.645v6.62a.64.64 0 0 0 .644.645Zm-20.654-9.521h7.427a.653.653 0 0 0 .644-.66V54.99a.65.65 0 0 0-.645-.644h-7.426a.663.663 0 0 0-.66.644v6.607a.676.676 0 0 0 .66.659Zm10.386 0h7.426a.653.653 0 0 0 .645-.66V54.99a.65.65 0 0 0-.645-.644h-7.426a.65.65 0 0 0-.645.644v6.607c0 .366.293.659.645.659Zm10.268 0h7.427c.366 0 .644-.293.659-.66V54.99a.644.644 0 0 0-.66-.644h-7.426a.65.65 0 0 0-.644.644v6.607c0 .366.278.659.644.659Zm0-9.507h7.427a.657.657 0 0 0 .659-.66v-6.62a.653.653 0 0 0-.66-.645h-7.426a.65.65 0 0 0-.644.645v6.62c0 .367.278.66.644.66Zm10.342 19.028h7.427a.65.65 0 0 0 .644-.644v-6.607a.663.663 0 0 0-.644-.659h-7.427a.65.65 0 0 0-.645.645v6.62a.65.65 0 0 0 .645.645Z"/></g><defs><clipPath id="a"><path fill="#fff" d="M0 0h150v150H0z"/></clipPath></defs></svg>