<svg xmlns="http://www.w3.org/2000/svg" width="150" height="150" fill="none"><path fill="#0C0C0C" d="M0 0h150v150H0z"/><g clip-path="url(#a)"><path fill="#0ACF83" d="M60.253 118c7.864 0 14.247-6.421 14.247-14.333V89.333H60.253c-7.864 0-14.247 6.422-14.247 14.334S52.389 118 60.253 118Z"/><path fill="#A259FF" d="M46.006 75c0-7.912 6.383-14.334 14.247-14.334H74.5v28.667H60.253c-7.864 0-14.247-6.421-14.247-14.333Z"/><path fill="#F24E1E" d="M46.006 46.333C46.006 38.421 52.389 32 60.253 32H74.5v28.667H60.253c-7.864 0-14.247-6.422-14.247-14.334Z"/><path fill="#FF7262" d="M74.5 32h14.247c7.865 0 14.247 6.421 14.247 14.333s-6.382 14.334-14.247 14.334H74.5V32Z"/><path fill="#1ABCFE" d="M102.994 75c0 7.912-6.382 14.333-14.247 14.333C80.883 89.333 74.5 82.912 74.5 75s6.383-14.334 14.247-14.334c7.865 0 14.247 6.422 14.247 14.334Z"/></g><defs><clipPath id="a"><path fill="#fff" d="M46 32h57v86H46z"/></clipPath></defs></svg>