<svg xmlns="http://www.w3.org/2000/svg" width="150" height="150" fill="none"><path fill="#0C0C0C" d="M0 0h150v150H0z"/><g clip-path="url(#a)"><path fill="#000" d="m39.814 38.45 44.266-3.27c5.438-.466 6.834-.151 10.254 2.334l14.13 9.955c2.33 1.712 3.106 2.178 3.106 4.042v54.595c0 3.421-1.242 5.445-5.592 5.754l-51.404 3.114c-3.264.154-4.819-.312-6.528-2.491L37.64 98.952c-1.866-2.49-2.64-4.354-2.64-6.534V43.89c0-2.797 1.242-5.13 4.814-5.44Z"/><path fill="#fff" fill-rule="evenodd" d="m84.08 35.182-44.266 3.27C36.242 38.76 35 41.093 35 43.89v48.528c0 2.179.774 4.043 2.64 6.534l10.406 13.53c1.71 2.179 3.264 2.646 6.528 2.491l51.405-3.112c4.347-.31 5.592-2.334 5.592-5.755V51.512c0-1.768-.698-2.278-2.754-3.786L94.334 37.514c-3.419-2.485-4.816-2.8-10.254-2.333ZM55.736 50.618c-4.198.283-5.15.347-7.534-1.592l-6.06-4.82c-.616-.624-.307-1.403 1.245-1.558l42.555-3.11c3.573-.312 5.434.934 6.832 2.022l7.298 5.288c.312.158 1.088 1.088.154 1.088L56.28 50.582l-.544.036Zm-4.894 55.022V59.294c0-2.024.622-2.958 2.483-3.115l50.475-2.955c1.712-.154 2.486.934 2.486 2.954v46.038c0 2.024-.312 3.736-3.107 3.89l-48.301 2.8c-2.795.155-4.035-.776-4.035-3.266Zm47.68-43.862c.31 1.4 0 2.8-1.4 2.96l-2.328.462v34.218c-2.021 1.088-3.882 1.71-5.437 1.71-2.486 0-3.107-.778-4.968-3.11L69.165 74.066V97.24l4.816 1.09s0 2.8-3.886 2.8l-10.712.622c-.312-.624 0-2.178 1.086-2.488l2.797-.776v-30.64l-3.882-.314c-.312-1.4.464-3.422 2.64-3.579l11.494-.773 15.84 24.261V65.98l-4.038-.464c-.312-1.714.93-2.96 2.482-3.112l10.72-.625Z" clip-rule="evenodd"/></g><defs><clipPath id="a"><path fill="#fff" d="M35 35h80v80H35z"/></clipPath></defs></svg>