<svg xmlns="http://www.w3.org/2000/svg" width="150" height="150" fill="none"><path fill="#442D22" d="M0 0h150v150H0z"/><g clip-path="url(#a)"><path fill="#13AA52" d="M0 0h150v150H0z"/><path fill="#13AA52" d="M75 150c41.421 0 75-33.579 75-75S116.421 0 75 0 0 33.579 0 75s33.579 75 75 75Z"/><path fill="#fff" d="M95.048 65.836c-4.737-20.908-15.933-27.782-17.139-30.409-1.318-1.853-2.654-5.149-2.654-5.149-.022-.055-.057-.153-.098-.249-.136 1.853-.207 2.568-1.959 4.437-2.712 2.121-16.631 13.8-17.764 37.554-1.056 22.155 16.004 35.356 18.31 37.039l.263.186v-.016c.015.111.732 5.273 1.236 10.743h1.808c.424-3.866 1.06-7.706 1.904-11.503l.147-.095a29.936 29.936 0 0 0 2.945-2.41l.106-.095c4.904-4.531 13.721-15.01 13.635-31.719a50.831 50.831 0 0 0-.74-8.314ZM75.051 96.55s0-31.073 1.026-31.067c.8 0 1.835 40.08 1.835 40.08-1.424-.171-2.86-6.596-2.86-9.013Z"/></g><defs><clipPath id="a"><path fill="#fff" d="M0 0h150v150H0z"/></clipPath></defs></svg>