<svg xmlns="http://www.w3.org/2000/svg" width="150" height="150" fill="none"><path fill="#0C0C0C" d="M0 0h150v150H0z"/><path fill="#F7F4F4" d="M114.566 52.6h-1.36a5.404 5.404 0 0 0-4.288 2.118l-13.92 18.204-13.92-18.203a5.394 5.394 0 0 0-4.284-2.119h-1.36l17.553 22.954L75.057 99h1.36a5.397 5.397 0 0 0 4.287-2.118L95 78.187l14.296 18.695A5.397 5.397 0 0 0 113.582 99h1.36l-17.93-23.446L114.567 52.6ZM69.062 89.787c-4.086 6.21-12.13 9.392-19.822 6.586-6.766-2.469-11.04-9.195-11.04-16.398V78.2H75v-6.614c0-10.408-7.709-19.52-18.072-20.495C45.037 49.973 35 59.336 35 71.001v8.916c0 8.593 5.144 16.582 13.23 19.493 10.565 3.801 21.677-1.872 25.434-11.61h-1.02c-1.458 0-2.782.77-3.582 1.987ZM38.2 71c0-9.264 7.536-16.8 16.8-16.8 9.264 0 16.8 7.536 16.8 16.8v4H38.2v-4Z"/></svg>