<svg xmlns="http://www.w3.org/2000/svg" width="150" height="150" fill="none"><path fill="#161614" d="M0 0h150v150H0z"/><path fill="#fff" d="M74.818 29.285C48.965 29.285 28 50.246 28 76.103c0 20.686 13.415 38.236 32.017 44.426 2.34.434 3.2-1.015 3.2-2.252 0-1.116-.044-4.805-.064-8.717-13.026 2.833-15.774-5.524-15.774-5.524-2.13-5.411-5.198-6.85-5.198-6.85-4.248-2.906.32-2.846.32-2.846 4.701.33 7.177 4.825 7.177 4.825 4.176 7.157 10.953 5.088 13.624 3.892.42-3.027 1.634-5.092 2.973-6.26-10.4-1.185-21.331-5.2-21.331-23.139 0-5.111 1.829-9.288 4.824-12.566-.486-1.18-2.089-5.941.453-12.39 0 0 3.932-1.259 12.879 4.799 3.734-1.038 7.74-1.558 11.718-1.575 3.98.017 7.987.537 11.729 1.575 8.936-6.058 12.862-4.8 12.862-4.8 2.548 6.45.945 11.211.46 12.39 3.001 3.28 4.817 7.456 4.817 12.567 0 17.982-10.952 21.942-21.377 23.1 1.679 1.454 3.175 4.303 3.175 8.671 0 6.264-.054 11.306-.054 12.848 0 1.246.842 2.706 3.216 2.246 18.592-6.198 31.99-23.74 31.99-44.42 0-25.857-20.962-46.818-46.818-46.818Z"/><path fill="#fff" d="M45.535 95.979c-.103.232-.47.302-.802.143-.34-.153-.53-.47-.42-.704.1-.24.467-.306.806-.145.34.152.534.472.416.706Zm2.303 2.055c-.223.207-.66.11-.956-.217-.306-.326-.363-.762-.137-.973.23-.206.654-.11.96.217.307.33.366.764.133.973m1.58 2.629c-.287.199-.756.012-1.046-.404-.287-.416-.287-.915.006-1.116.291-.2.753-.02 1.047.393.286.424.286.923-.007 1.127m2.672 3.045c-.257.283-.803.207-1.203-.179-.41-.378-.524-.913-.266-1.197.26-.283.809-.203 1.212.18.407.376.53.916.257 1.196Zm3.453 1.028c-.113.366-.64.533-1.17.377-.53-.16-.876-.59-.769-.96.11-.369.64-.543 1.173-.376.53.16.876.586.766.959Zm3.93.436c.014.386-.436.706-.993.713-.56.012-1.013-.3-1.018-.68 0-.39.439-.707.999-.716.556-.011 1.012.299 1.012.683Zm3.86-.148c.068.377-.32.764-.872.866-.543.1-1.046-.133-1.116-.506-.067-.387.327-.773.87-.873.553-.097 1.048.13 1.119.513Z"/></svg>