<svg xmlns="http://www.w3.org/2000/svg" width="150" height="150" fill="none"><path fill="#689F63" d="M0 0h150v150H0z"/><g clip-path="url(#a)"><path fill="#fff" fill-rule="evenodd" d="M85.235 95.41c-15.182 0-18.364-7.02-18.364-12.913 0-.56.447-1.01 1.002-1.01h4.485c.493 0 .909.365.986.854.678 4.605 2.69 6.927 11.876 6.927 7.313 0 10.419-1.662 10.419-5.576 0-2.251-.886-3.92-12.246-5.04-9.502-.947-15.374-3.05-15.374-10.715 0-7.05 5.903-11.252 15.798-11.252 11.113 0 16.615 3.883 17.309 12.238a1.025 1.025 0 0 1-1.01 1.103h-4.5a.994.994 0 0 1-.971-.784c-1.087-4.838-3.707-6.391-10.843-6.391-7.984 0-8.909 2.803-8.909 4.9 0 2.547 1.094 3.292 11.868 4.729 10.666 1.428 15.729 3.44 15.729 10.995 0 7.618-6.304 11.982-17.301 11.982l.046-.047Zm-10.72 27.799a7.247 7.247 0 0 1-3.637-.978l-11.583-6.911c-1.734-.979-.886-1.32-.316-1.522 2.304-.816 2.775-.994 5.24-2.407.263-.148.602-.094.864.062l8.9 5.319c.324.178.779.178 1.08 0l34.702-20.182c.323-.186.531-.559.531-.947v-40.34c0-.403-.208-.76-.539-.963L75.063 34.174a1.058 1.058 0 0 0-1.072 0L39.313 54.34c-.34.194-.548.567-.548.955v40.348c0 .388.208.753.54.94l9.502 5.528c5.155 2.602 8.315-.466 8.315-3.54V58.742c0-.567.44-1.01 1.01-1.01h4.392a.999.999 0 0 1 1.002 1.01v39.843c0 6.934-3.753 10.91-10.273 10.91-2.003 0-3.59 0-7.999-2.19l-9.117-5.288c-2.25-1.312-3.637-3.758-3.637-6.375V55.295c0-2.624 1.387-5.078 3.637-6.375L70.87 28.731c2.197-1.25 5.117-1.25 7.298 0l34.695 20.197c2.242 1.305 3.637 3.743 3.637 6.375v40.348a7.419 7.419 0 0 1-3.637 6.375l-34.695 20.189a7.273 7.273 0 0 1-3.653.978v.016Z" clip-rule="evenodd"/></g><defs><clipPath id="a"><path fill="#fff" d="M32.5 27.791h84v95.419h-84z"/></clipPath></defs></svg>