<svg xmlns="http://www.w3.org/2000/svg" width="150" height="150" fill="none"><path fill="#000" d="M0 0h150v150H0z"/><g clip-path="url(#a)"><path fill="#000" d="M74.918 149.602c41.26 0 74.707-33.448 74.707-74.708 0-41.259-33.447-74.707-74.707-74.707C33.658.188.212 33.636.212 74.894c0 41.26 33.448 74.708 74.707 74.708Z"/><path fill="url(#b)" d="m124.315 130.942-66.71-85.93h-12.57v59.741h10.056V57.781l61.331 79.24a74.928 74.928 0 0 0 7.893-6.079Z"/><path fill="url(#c)" fill-rule="evenodd" d="M95.67 45.012h9.961v59.765h-9.96V45.012Z" clip-rule="evenodd"/></g><defs><linearGradient id="b" x1="90.69" x2="120.158" y1="96.892" y2="133.416" gradientUnits="userSpaceOnUse"><stop stop-color="#fff"/><stop offset="1" stop-color="#fff" stop-opacity="0"/></linearGradient><linearGradient id="c" x1="100.651" x2="100.484" y1="45.013" y2="88.903" gradientUnits="userSpaceOnUse"><stop stop-color="#fff"/><stop offset="1" stop-color="#fff" stop-opacity="0"/></linearGradient><clipPath id="a"><path fill="#fff" d="M0 0h150v150H0z"/></clipPath></defs></svg>