<svg xmlns="http://www.w3.org/2000/svg" width="150" height="150" fill="none"><path fill="#61DAFB" d="M0 0h150v150H0z"/><path fill="#fff" d="M74.594 83.563a8.969 8.969 0 1 0 0-17.938 8.969 8.969 0 1 0 0 17.938Z"/><path stroke="#fff" stroke-width="4.375" d="M74.375 93.615c26.579 0 48.125-8.227 48.125-18.375s-21.546-18.375-48.125-18.375S26.25 65.09 26.25 75.24c0 10.148 21.546 18.375 48.125 18.375Z"/><path stroke="#fff" stroke-width="4.375" d="M58.462 84.427c13.289 23.018 31.187 37.565 39.975 32.49 8.789-5.074 5.14-27.847-8.149-50.865-13.29-23.017-31.187-37.564-39.976-32.49-8.788 5.075-5.14 27.848 8.15 50.865Z"/><path stroke="#fff" stroke-width="4.375" d="M58.462 66.052c-13.29 23.018-16.938 45.791-8.15 50.865 8.789 5.074 26.687-9.472 39.976-32.49 13.289-23.018 16.938-45.79 8.15-50.865-8.79-5.074-26.687 9.472-39.976 32.49Z"/></svg>